# xmcd
#
# Track frame offsets:
#	150
#	16809
#	37073
#	56253
#	69011
#	88878
#	108414
#	129188
#	141675
#	152973
#	169387
#	185546
#	198891
#
# Disc length: 3023 seconds
#
# Revision: 1
# Processed by: cddbd v1.5PL3 Copyright (c) Steve Scherf et al.
# Submitted via: EasyCDDAExtractor 6.0.0.1
#
DISCID=b20bcd0d
DTITLE=Bruno and Marrone - Inéditas(by dimas som)
DYEAR=2001
DGENRE=
TTITLE0=Que Pena-Bruno and Marrone(Part.Especial Felipe and Falcão
TTITLE1=Pout Porri-Bruno and Marrone
TTITLE2=Bijouteria-Bruno and Marrone
TTITLE3=Sem Você-Bruno and Marrone
TTITLE4=Nunca Mais Caminharei Sozinho-Bruno and Marrone
TTITLE5=Cor Do Amor-Bruno and Marrone
TTITLE6=Passou Da Conta-Bruno and Marrone
TTITLE7=Fio De Cabelo-Bruno and Marrone
TTITLE8=Morena Proibida-Bruno and Marrone
TTITLE9=Rancho Do Vale-Bruno and Marrone
TTITLE10=Esta Noite Eu Queria Que O Mundo Acabasse-Bruno and Marrone
TTITLE11=24 Horas De Amor-Bruno and Marrone
TTITLE12=Nossa Senhora-Bruno and Marrone
EXTD=
EXTT0=
EXTT1=
EXTT2=
EXTT3=
EXTT4=
EXTT5=
EXTT6=
EXTT7=
EXTT8=
EXTT9=
EXTT10=
EXTT11=
EXTT12=
PLAYORDER=
